HIERARCHY
ROOT Hips
{
 OFFSET 0.000000 0.000000 0.000000
 CHANNELS 6 Xposition Yposition Zposition Yrotation Xrotation Zrotation
 JOINT Chest
 {
  OFFSET 0.000000 9.588913 -0.003946
  CHANNELS 3 Yrotation Xrotation Zrotation
  JOINT Chest2
  {
   OFFSET 0.000000 9.541882 0.008053
   CHANNELS 3 Yrotation Xrotation Zrotation
   JOINT Chest3
   {
    OFFSET 0.000000 9.501360 0.000000
    CHANNELS 3 Yrotation Xrotation Zrotation
    JOINT Chest4
    {
     OFFSET 0.000000 9.491660 0.000000
     CHANNELS 3 Yrotation Xrotation Zrotation
     JOINT Neck
     {
      OFFSET 0.000000 14.331917 0.000000
      CHANNELS 3 Yrotation Xrotation Zrotation
      JOINT Head
      {
       OFFSET 0.000000 8.884799 0.017034
       CHANNELS 3 Yrotation Xrotation Zrotation
       End Site
       {
        OFFSET 0.000000 16.896195 0.008993
       }
      }
     }
     JOINT RightCollar
     {
      OFFSET -2.923010 9.499495 0.000000
      CHANNELS 3 Yrotation Xrotation Zrotation
      JOINT RightShoulder
      {
       OFFSET -13.795216 0.000000 0.000000
       CHANNELS 3 Yrotation Xrotation Zrotation
       JOINT RightElbow
       {
        OFFSET -30.272209 0.000000 0.000000
        CHANNELS 3 Yrotation Xrotation Zrotation
        JOINT RightWrist
        {
         OFFSET -24.478199 0.000000 0.000000
         CHANNELS 3 Yrotation Xrotation Zrotation
         End Site
         {
          OFFSET -18.090752 0.000000 0.000000
         }
        }
       }
      }
     }
     JOINT LeftCollar
     {
      OFFSET 2.923010 9.499495 0.000000
      CHANNELS 3 Yrotation Xrotation Zrotation
      JOINT LeftShoulder
      {
       OFFSET 13.795216 0.000000 0.000000
       CHANNELS 3 Yrotation Xrotation Zrotation
       JOINT LeftElbow
       {
        OFFSET 30.272209 0.000000 0.000000
        CHANNELS 3 Yrotation Xrotation Zrotation
        JOINT LeftWrist
        {
         OFFSET 24.478199 0.000000 0.000000
         CHANNELS 3 Yrotation Xrotation Zrotation
         End Site
         {
          OFFSET 18.090752 0.000000 0.000000
         }
        }
       }
      }
     }
    }
   }
  }
 }
 JOINT RightHip
 {
  OFFSET -7.826875 0.019532 0.001973
  CHANNELS 3 Yrotation Xrotation Zrotation
  JOINT RightKnee
  {
   OFFSET 0.000000 -40.546152 -0.001885
   CHANNELS 3 Yrotation Xrotation Zrotation
   JOINT RightAnkle
   {
    OFFSET 0.000000 -39.417092 -0.003189
    CHANNELS 3 Yrotation Xrotation Zrotation
    JOINT RightToe
    {
     OFFSET 0.000000 -7.579396 17.243563
     CHANNELS 3 Yrotation Xrotation Zrotation
     End Site
     {
      OFFSET 0.000000 -1.500329 6.694466
     }
    }
   }
  }
 }
 JOINT LeftHip
 {
  OFFSET 7.826875 0.019532 0.001973
  CHANNELS 3 Yrotation Xrotation Zrotation
  JOINT LeftKnee
  {
   OFFSET 0.000000 -40.546152 -0.001885
   CHANNELS 3 Yrotation Xrotation Zrotation
   JOINT LeftAnkle
   {
    OFFSET 0.000000 -39.417092 -0.003189
    CHANNELS 3 Yrotation Xrotation Zrotation
    JOINT LeftToe
    {
     OFFSET 0.000000 -7.579396 17.243563
     CHANNELS 3 Yrotation Xrotation Zrotation
     End Site
     {
      OFFSET 0.000000 -1.500329 6.694466
     }
    }
   }
  }
 }
}
MOTION
Frames: 15
Frame Time: 0.008333
-2.484986 49.703808 -12.790916 -8.137712 -24.117072 4.470802 13.474249 12.809007 5.555550 7.659487 7.521703 2.438658 9.644953 9.345256 3.212196 7.659491 7.521704 2.438657 -11.220077 7.726195 -3.992505 -12.015332 -17.618125 -1.761305 14.687957 -4.661029 -14.593193 19.416506 -46.512960 36.091459 20.542419 6.036482 -4.743875 10.118965 -0.078207 -18.037965 2.072047 -2.691352 -0.083643 12.196368 -14.519101 -77.632418 -77.978793 -13.742751 -32.861197 10.258711 3.619154 3.951585 48.035035 -60.778341 -9.649259 114.232572 65.462845 132.088577 3.172609 -22.832955 -5.836323 0.041262 1.100282 0.015089 46.903256 -78.013150 43.662188 -142.597738 67.076480 -107.811157 -2.577089 -16.171537 -13.841516 -0.327428 -0.836460 -0.116265
-2.479011 49.699857 -12.796045 -8.107859 -24.170337 4.407972 13.480529 12.762986 5.552801 7.667936 7.497344 2.438818 9.655236 9.314755 3.211996 7.667940 7.497345 2.438818 -11.141347 7.722639 -4.001909 -11.915039 -17.622845 -1.791452 14.668664 -4.648659 -14.527597 19.266935 -46.485051 36.224697 20.684981 6.192798 -4.704748 10.156027 -0.050531 -18.102305 2.055141 -2.729377 -0.051512 12.038459 -14.558534 -77.678508 -77.906414 -13.650836 -32.812408 10.389182 3.643106 4.013763 47.896831 -60.780899 -9.510730 114.244663 65.468422 132.099768 3.162801 -22.834264 -5.825803 0.048069 1.093918 0.019491 46.550101 -78.054722 43.994889 -142.656357 67.065933 -107.874325 -2.583375 -16.157549 -13.819963 -0.330317 -0.837138 -0.116308
-2.473276 49.695845 -12.801033 -8.081543 -24.222690 4.346804 13.489964 12.716689 5.549947 7.675765 7.472369 2.439074 9.664736 9.283489 3.211887 7.675769 7.472370 2.439073 -11.062004 7.720559 -4.011858 -11.813838 -17.625877 -1.822359 14.650136 -4.636667 -14.463725 19.111741 -46.459422 36.362048 20.826610 6.326620 -4.658094 10.170879 -0.044128 -18.145019 2.044178 -2.764100 -0.020390 11.874550 -14.600601 -77.728752 -77.833409 -13.554356 -32.759276 10.515540 3.664676 4.078989 47.760878 -60.783333 -9.371010 114.259115 65.476164 132.110008 3.156721 -22.837318 -5.812693 0.049355 1.089736 0.021921 46.205120 -78.096888 44.324459 -142.720683 67.054899 -107.940281 -2.591508 -16.148481 -13.802075 -0.330833 -0.836575 -0.113961
-2.468046 49.691685 -12.805927 -8.055388 -24.273804 4.284181 13.501632 12.668782 5.549018 7.683121 7.446611 2.439742 9.673643 9.251239 3.212267 7.683125 7.446612 2.439742 -10.982770 7.720533 -4.022647 -11.712510 -17.626566 -1.854192 14.632529 -4.624764 -14.401419 18.957023 -46.435940 36.498174 20.960592 6.436160 -4.602494 10.159798 -0.056350 -18.163677 2.035382 -2.797532 0.011920 11.709175 -14.643453 -77.785877 -77.756726 -13.458395 -32.711140 10.644407 3.686057 4.151854 47.622242 -60.787926 -9.228179 114.275559 65.485962 132.121013 3.151596 -22.839555 -5.798822 0.049375 1.085525 0.023321 45.861643 -78.142366 44.654636 -142.789308 67.044427 -108.007518 -2.604705 -16.142895 -13.785018 -0.330938 -0.834987 -0.111189
-2.463065 49.687494 -12.810302 -8.027168 -24.325937 4.220795 13.513702 12.620532 5.548544 7.690276 7.420132 2.441001 9.682302 9.218078 3.213363 7.690281 7.420133 2.441000 -10.903536 7.724443 -4.034149 -11.610788 -17.622796 -1.886831 14.614764 -4.613387 -14.337421 18.812028 -46.409533 36.624438 21.084217 6.512084 -4.536627 10.123025 -0.076504 -18.158727 2.030523 -2.829297 0.046645 11.540568 -14.688545 -77.853033 -77.672530 -13.361282 -32.666583 10.773475 3.704709 4.226333 47.480790 -60.791667 -9.084332 114.290951 65.495997 132.133248 3.146314 -22.840622 -5.788178 0.052070 1.080266 0.025799 45.518325 -78.189188 44.985215 -142.860987 67.031782 -108.076638 -2.618049 -16.140871 -13.764422 -0.333515 -0.831407 -0.110256
-2.457832 49.683155 -12.814213 -7.997112 -24.377885 4.159325 13.523956 12.571882 5.545298 7.697014 7.393028 2.442388 9.690432 9.184137 3.214597 7.697018 7.393029 2.442387 -10.823058 7.733052 -4.045859 -11.507186 -17.613712 -1.919986 14.600039 -4.604319 -14.268906 18.675812 -46.374409 36.739535 21.206460 6.549845 -4.461723 10.056399 -0.098054 -18.133614 2.035291 -2.859342 0.083463 11.364835 -14.734253 -77.931936 -77.581859 -13.260155 -32.615457 10.900235 3.722630 4.294196 47.343591 -60.793291 -8.947173 114.303677 65.504047 132.144925 3.141185 -22.842264 -5.778744 0.055208 1.074857 0.027854 45.184757 -78.236200 45.305550 -142.935126 67.013674 -108.148940 -2.626067 -16.140267 -13.739866 -0.339525 -0.827439 -0.111152
-2.452193 49.678471 -12.817884 -7.966076 -24.427532 4.100599 13.532619 12.522673 5.538430 7.703515 7.365260 2.443611 9.698255 9.149371 3.215604 7.703520 7.365261 2.443610 -10.741190 7.745535 -4.056045 -11.402025 -17.600231 -1.951673 14.589589 -4.599061 -14.199016 18.539266 -46.330637 36.853089 21.336862 6.549124 -4.381946 9.954840 -0.126521 -18.085059 2.049321 -2.890835 0.122621 11.180431 -14.777317 -78.023786 -77.487110 -13.154886 -32.553551 11.025168 3.742367 4.355689 47.215890 -60.794887 -8.821766 114.315823 65.508941 132.157475 3.135985 -22.843805 -5.767040 0.056692 1.068496 0.027453 44.863910 -78.283051 45.612807 -143.007123 66.991169 -108.220352 -2.631583 -16.139328 -13.714201 -0.346313 -0.824182 -0.112177
-2.446022 49.673468 -12.821080 -7.934479 -24.475801 4.045610 13.539978 12.473817 5.527200 7.710412 7.336966 2.444268 9.706556 9.113957 3.215898 7.710417 7.336967 2.444267 -10.658687 7.762351 -4.062338 -11.296781 -17.581818 -1.978960 14.579028 -4.596670 -14.129404 18.400562 -46.280370 36.972356 21.484891 6.502774 -4.297128 9.817055 -0.168660 -18.014074 2.067736 -2.925034 0.164871 10.991209 -14.819370 -78.125630 -77.387904 -13.046421 -32.485588 11.147638 3.763101 4.416346 47.098653 -60.797066 -8.706492 114.333859 65.510202 132.176346 3.128062 -22.844284 -5.752170 0.058704 1.059002 0.026124 44.549871 -78.327468 45.912525 -143.079914 66.968904 -108.294045 -2.640456 -16.136504 -13.687910 -0.352642 -0.823496 -0.113526
-2.439685 49.668073 -12.823829 -7.902317 -24.522221 3.992141 13.546373 12.424053 5.513761 7.717807 7.308370 2.443860 9.715457 9.078186 3.214861 7.717812 7.308371 2.443860 -10.575878 7.783734 -4.064152 -11.191989 -17.558209 -2.001087 14.567366 -4.596420 -14.059322 18.258606 -46.220769 37.096305 21.661100 6.396273 -4.202974 9.644297 -0.228117 -17.924657 2.086679 -2.959284 0.208874 10.806218 -14.865373 -78.232530 -77.284190 -12.935067 -32.419300 11.268564 3.783228 4.478793 46.987959 -60.801722 -8.596577 114.355795 65.508110 132.199077 3.116010 -22.843568 -5.736151 0.062347 1.047037 0.025828 44.238152 -78.371216 46.208433 -143.153726 66.949147 -108.370229 -2.652030 -16.130562 -13.660623 -0.358841 -0.825275 -0.116021
-2.433632 49.662323 -12.825972 -7.869848 -24.567559 3.937850 13.552812 12.373324 5.500156 7.725465 7.278882 2.442974 9.724667 9.041308 3.213208 7.725470 7.278883 2.442973 -10.492535 7.809614 -4.063108 -11.086997 -17.529515 -2.019993 14.556328 -4.595144 -13.987828 18.103914 -46.147993 37.224309 21.876117 6.218660 -4.096405 9.441497 -0.310930 -17.811756 2.105401 -2.989971 0.250445 10.629897 -14.915055 -78.340925 -77.180021 -12.819691 -32.356964 11.389900 3.802356 4.538757 46.877822 -60.808400 -8.486277 114.382442 65.506287 132.227238 3.103808 -22.842836 -5.723048 0.067348 1.034905 0.027974 43.924428 -78.414364 46.506214 -143.220988 66.927497 -108.438951 -2.662899 -16.125892 -13.634522 -0.364262 -0.826160 -0.118791
-2.427940 49.656435 -12.827005 -7.835660 -24.614714 3.882150 13.559298 12.322297 5.486758 7.733148 7.248236 2.442587 9.733904 9.002973 3.212152 7.733154 7.248237 2.442586 -10.408615 7.840267 -4.060914 -10.981330 -17.495457 -2.037663 14.543240 -4.590325 -13.912570 17.934427 -46.060784 37.359022 22.140476 5.964284 -3.976237 9.212381 -0.417479 -17.669687 2.123291 -3.017095 0.287280 10.462089 -14.964031 -78.450706 -77.080645 -12.695923 -32.296951 11.511865 3.823338 4.592048 46.764471 -60.814848 -8.372260 114.419993 65.507723 132.268382 3.094572 -22.841725 -5.714769 0.075124 1.021699 0.033125 43.599134 -78.453757 46.814783 -143.279819 66.902302 -108.499740 -2.667914 -16.125057 -13.609913 -0.369182 -0.823815 -0.121435
-2.422628 49.650383 -12.826954 -7.798451 -24.663174 3.824284 13.565626 12.270085 5.474907 7.740705 7.217139 2.442533 9.742986 8.964068 3.211498 7.740711 7.217141 2.442531 -10.324973 7.874753 -4.057980 -10.876039 -17.457101 -2.054365 14.523829 -4.585867 -13.833241 17.753159 -45.960321 37.507769 22.460649 5.631483 -3.842613 8.958577 -0.541408 -17.495885 2.139362 -3.043361 0.322397 10.302068 -15.010634 -78.566002 -76.989024 -12.560918 -32.235151 11.632089 3.847284 4.635680 46.649086 -60.821663 -8.256008 114.465841 65.511937 132.320568 3.085409 -22.839986 -5.708163 0.085638 1.007139 0.039218 43.265789 -78.491156 47.131030 -143.330559 66.879707 -108.555558 -2.670315 -16.126726 -13.583115 -0.375043 -0.816284 -0.124736
-2.417703 49.643924 -12.826304 -7.760212 -24.709363 3.764377 13.572687 12.216470 5.464303 7.748224 7.185913 2.441897 9.752008 8.925016 3.210112 7.748230 7.185915 2.441895 -10.240936 7.911310 -4.053808 -10.770570 -17.416435 -2.069684 14.500288 -4.582010 -13.751201 17.550247 -45.857729 37.681369 22.835685 5.232069 -3.695760 8.682768 -0.678323 -17.293357 2.155219 -3.071765 0.358972 10.145585 -15.054290 -78.688306 -76.907148 -12.413986 -32.164565 11.748731 3.869422 4.668129 46.536536 -60.831850 -8.140340 114.514830 65.517414 132.376805 3.072407 -22.838812 -5.698871 0.096574 0.992950 0.044335 42.936640 -78.531256 47.445936 -143.374291 66.861866 -108.606140 -2.677723 -16.130809 -13.552319 -0.381722 -0.803561 -0.128980
-2.412920 49.637016 -12.825123 -7.724300 -24.752467 3.704785 13.581212 12.162691 5.452564 7.756079 7.154158 2.440693 9.761433 8.885312 3.208009 7.756085 7.154160 2.440692 -10.154618 7.948850 -4.048577 -10.662661 -17.374693 -2.084283 14.475662 -4.572541 -13.666170 17.317523 -45.766361 37.883370 23.258807 4.792176 -3.531251 8.387966 -0.826472 -17.073077 2.171797 -3.101303 0.396065 9.988152 -15.093798 -78.816058 -76.835415 -12.255437 -32.083157 11.863273 3.887094 4.693126 46.431057 -60.845802 -8.028047 114.564843 65.521382 132.433883 3.056390 -22.837787 -5.687632 0.106797 0.978881 0.049053 42.615099 -78.573078 47.756885 -143.416983 66.844967 -108.654834 -2.688481 -16.137589 -13.521468 -0.387328 -0.789164 -0.133089
-2.407538 49.629777 -12.823179 -7.690722 -24.793800 3.649567 13.588689 12.109821 5.436659 7.764052 7.121473 2.439428 9.770993 8.844447 3.205808 7.764058 7.121475 2.439427 -10.066057 7.987398 -4.043569 -10.552065 -17.331865 -2.099628 14.448643 -4.555190 -13.576495 17.062486 -45.689655 38.104686 23.716121 4.339873 -3.343709 8.078215 -0.982125 -16.846627 2.187718 -3.129279 0.430607 9.830589 -15.128142 -78.946928 -76.770398 -12.090159 -31.994097 11.976349 3.904465 4.713689 46.334560 -60.858895 -7.923802 114.618828 65.522736 132.494163 3.042572 -22.839226 -5.677067 0.115718 0.965942 0.053783 42.304995 -78.611556 48.057756 -143.463389 66.826990 -108.706701 -2.700363 -16.145989 -13.492899 -0.392102 -0.776737 -0.136237
